<svg width="32" height="32" viewBox="0 0 32 32" fill="none" xmlns="http://www.w3.org/2000/svg">
<path d="M12 17.3333C11.12 17.7733 10.3867 18.4266 9.83999 19.24C9.53332 19.7066 9.53332 20.2933 9.83999 20.76C10.3867 21.5733 11.12 22.2266 12 22.6666" stroke="white" stroke-width="3" stroke-linecap="round" stroke-linejoin="round"/>
<path d="M20.28 17.3333C21.16 17.7733 21.8934 18.4266 22.44 19.24C22.7467 19.7066 22.7467 20.2933 22.44 20.76C21.8934 21.5733 21.16 22.2266 20.28 22.6666" stroke="white" stroke-width="3" stroke-linecap="round" stroke-linejoin="round"/>
<path d="M2.66663 17.3334V20C2.66663 26.6667 5.33329 29.3334 12 29.3334H20C26.6666 29.3334 29.3333 26.6667 29.3333 20V12C29.3333 5.33335 26.6666 2.66669 20 2.66669H12C5.33329 2.66669 2.66663 5.33335 2.66663 12" stroke="white" stroke-width="3" stroke-linecap="round" stroke-linejoin="round"/>
<path d="M2.97339 10.68L28.6001 10.6667" stroke="white" stroke-width="3" stroke-linecap="round" stroke-linejoin="round"/>
</svg>
