<svg width="14" height="14" viewBox="0 0 14 14" fill="none" xmlns="http://www.w3.org/2000/svg">
<path d="M13.0919 0.363963C13.4824 0.754488 13.4824 1.38765 13.0919 1.77818L8.14283 6.72721L13.0919 11.6777C13.4824 12.0682 13.4824 12.7014 13.0919 13.0919C12.7013 13.4824 12.0682 13.4824 11.6777 13.0919L6.72861 8.14143L1.77816 13.0919C1.38764 13.4824 0.754471 13.4824 0.363946 13.0919C-0.0265782 12.7014 -0.0265776 12.0682 0.363946 11.6777L5.3144 6.72722L0.36395 1.77817C-0.0265746 1.38764 -0.0265742 0.754479 0.36395 0.363956C0.754474 -0.0265691 1.38764 -0.0265691 1.77816 0.363955L6.72861 5.313L11.6777 0.363963C12.0682 -0.0265614 12.7013 -0.0265617 13.0919 0.363963Z" fill="#52555A"/>
</svg>
