<svg width="32" height="32" viewBox="0 0 32 32" fill="none" xmlns="http://www.w3.org/2000/svg">
<path d="M28.3333 12.2C25.2533 7.36003 20.7466 4.57336 16 4.57336C13.6266 4.57336 11.32 5.2667 9.21329 6.56003C7.10663 7.8667 5.21329 9.77336 3.66663 12.2C2.33329 14.2934 2.33329 17.6934 3.66663 19.7867C6.74663 24.64 11.2533 27.4134 16 27.4134C18.3733 27.4134 20.68 26.72 22.7866 25.4267C24.8933 24.12 26.7866 22.2134 28.3333 19.7867C29.6666 17.7067 29.6666 14.2934 28.3333 12.2ZM16 21.3867C13.0133 21.3867 10.6133 18.9734 10.6133 16C10.6133 13.0267 13.0133 10.6134 16 10.6134C18.9866 10.6134 21.3866 13.0267 21.3866 16C21.3866 18.9734 18.9866 21.3867 16 21.3867Z" fill="white"/>
<path d="M16 12.1866C13.9066 12.1866 12.2 13.8933 12.2 16C12.2 18.0933 13.9066 19.8 16 19.8C18.0933 19.8 19.8133 18.0933 19.8133 16C19.8133 13.9066 18.0933 12.1866 16 12.1866Z" fill="white"/>
</svg>
