<svg width="15" height="17" viewBox="0 0 15 17" fill="none" xmlns="http://www.w3.org/2000/svg">
<path d="M6 9C6.55228 9 7 9.44772 7 10V16C7 16.5523 6.55228 17 6 17H1C0.447715 17 0 16.5523 0 16V10C0 9.44772 0.447715 9 1 9H6ZM14 9C14.5523 9 15 9.44772 15 10V16C15 16.5523 14.5523 17 14 17H9C8.44772 17 8 16.5523 8 16V10C8 9.44772 8.44772 9 9 9H14ZM5 11H2V15H5V11ZM13 11H10V15H13V11ZM6 0C6.55228 0 7 0.447715 7 1V7C7 7.55228 6.55228 8 6 8H1C0.447715 8 0 7.55228 0 7V1C0 0.447715 0.447715 0 1 0H6ZM14 0C14.5523 0 15 0.447715 15 1V7C15 7.55228 14.5523 8 14 8H9C8.44772 8 8 7.55228 8 7V1C8 0.447715 8.44772 0 9 0H14ZM5 2H2V6H5V2ZM13 2H10V6H13V2Z" fill="#52555A"/>
</svg>
