<svg width="44" height="48" viewBox="0 0 44 48" fill="none" xmlns="http://www.w3.org/2000/svg">
<path d="M18.895 12.7725V32.9775L11.875 30.9525" stroke="#6CB4EE" stroke-width="3" stroke-miterlimit="10" stroke-linecap="round" stroke-linejoin="round"/>
<path d="M32.125 12.75L25.0374 13.7625V24.9L32.125 23.8875V30.975L24.0251 33" stroke="#6CB4EE" stroke-width="3" stroke-miterlimit="10" stroke-linecap="round" stroke-linejoin="round"/>
<path d="M2.47008 8.04751L2.02005 3.9975C1.86255 2.67 2.92003 1.5 4.24753 1.5H39.7301C41.0801 1.5 42.115 2.67 41.9575 3.9975L37.9076 40.4925C37.8176 41.3925 37.165 42.1575 36.2875 42.405L22.6076 46.32C22.2026 46.4325 21.775 46.4325 21.37 46.32L7.6901 42.405C6.8126 42.1575 6.18252 41.3925 6.07002 40.4925L3.59508 18.1725" stroke="#6CB4EE" stroke-width="3" stroke-miterlimit="10" stroke-linecap="round" stroke-linejoin="round"/>
</svg>
