<svg width="66" height="62" viewBox="0 0 66 62" fill="none" xmlns="http://www.w3.org/2000/svg">
<path d="M29.5915 49.5V56.25C29.5915 57.0792 28.8668 57.8333 27.8967 57.8333C26.9267 57.8333 26.202 57.0792 26.202 56.25V49.5H29.5915Z" stroke="white" stroke-width="2"/>
<path d="M40.3706 49.5V56.25C40.3706 57.0792 39.6459 57.8333 38.6758 57.8333C37.7058 57.8333 36.9811 57.0792 36.9811 56.25V49.5H40.3706Z" stroke="white" stroke-width="2"/>
<path d="M45.7602 28.4167V41.3333C45.7602 43.5833 43.8228 45.5 41.3706 45.5H25.202C22.7498 45.5 20.8124 43.5833 20.8124 41.3333V28.4167C20.8124 26.1667 22.7498 24.25 25.202 24.25H41.3706C43.8228 24.25 45.7602 26.1667 45.7602 28.4167Z" stroke="white" stroke-width="2"/>
<path d="M13.4229 28.4166V38.75C13.4229 39.5791 12.6982 40.3333 11.7281 40.3333C10.7581 40.3333 10.0334 39.5791 10.0334 38.75V28.4166C10.0334 27.5875 10.7581 26.8333 11.7281 26.8333C12.6982 26.8333 13.4229 27.5875 13.4229 28.4166Z" stroke="white" stroke-width="2"/>
<path d="M56.5392 28.4166V38.75C56.5392 39.5791 55.8145 40.3333 54.8445 40.3333C53.8744 40.3333 53.1497 39.5791 53.1497 38.75V28.4166C53.1497 27.5875 53.8744 26.8333 54.8445 26.8333C55.8145 26.8333 56.5392 27.5875 56.5392 28.4166Z" stroke="white" stroke-width="2"/>
<path d="M43.0654 15.5C43.0654 17.1817 41.6131 18.6334 39.7538 18.6334H26.8188C24.9595 18.6334 23.5072 17.1817 23.5072 15.5C23.5072 10.3825 27.8429 6.16669 33.2863 6.16669C38.7297 6.16669 43.0654 10.3825 43.0654 15.5Z" stroke="white" stroke-width="2"/>
</svg>
