<svg width="66" height="62" viewBox="0 0 66 62" fill="none" xmlns="http://www.w3.org/2000/svg">
<path d="M21.4767 35.65V24.8" stroke="#6CB4EE" stroke-width="3" stroke-linecap="round" stroke-linejoin="round"/>
<path d="M21.8824 46.5C24.7951 46.5 27.1563 44.2446 27.1563 41.4625C27.1563 38.6804 24.7951 36.425 21.8824 36.425C18.9697 36.425 16.6085 38.6804 16.6085 41.4625C16.6085 44.2446 18.9697 46.5 21.8824 46.5Z" stroke="#6CB4EE" stroke-width="3" stroke-linecap="round" stroke-linejoin="round"/>
<path d="M21.4767 24.8C24.1653 24.8 26.3448 22.7181 26.3448 20.15C26.3448 17.5818 24.1653 15.5 21.4767 15.5C18.788 15.5 16.6085 17.5818 16.6085 20.15C16.6085 22.7181 18.788 24.8 21.4767 24.8Z" stroke="#6CB4EE" stroke-width="3" stroke-linecap="round" stroke-linejoin="round"/>
<path d="M44.1949 24.8C46.8835 24.8 49.063 22.7181 49.063 20.15C49.063 17.5818 46.8835 15.5 44.1949 15.5C41.5063 15.5 39.3268 17.5818 39.3268 20.15C39.3268 22.7181 41.5063 24.8 44.1949 24.8Z" stroke="#6CB4EE" stroke-width="3" stroke-linecap="round" stroke-linejoin="round"/>
<path d="M21.6931 35.65C22.4233 32.9375 25.0196 30.9225 28.0758 30.9484L33.6471 30.9741C37.8933 31 41.5174 28.3908 42.8427 24.7483" stroke="#6CB4EE" stroke-width="3" stroke-linecap="round" stroke-linejoin="round"/>
<path d="M24.7221 5.16663H40.9494C54.4721 5.16663 59.8812 10.3333 59.8812 23.25V38.75C59.8812 51.6666 54.4721 56.8333 40.9494 56.8333H24.7221C11.1994 56.8333 5.79031 51.6666 5.79031 38.75V23.25C5.79031 10.3333 11.1994 5.16663 24.7221 5.16663Z" stroke="#6CB4EE" stroke-width="3" stroke-linecap="round" stroke-linejoin="round"/>
</svg>
