<svg width="28" height="28" viewBox="0 0 28 28" fill="none" xmlns="http://www.w3.org/2000/svg">
<path d="M19.5866 0.666687H8.41329C3.55996 0.666687 0.666626 3.56002 0.666626 8.41335V19.5734C0.666626 24.44 3.55996 27.3334 8.41329 27.3334H19.5733C24.4266 27.3334 27.32 24.44 27.32 19.5867V8.41335C27.3333 3.56002 24.44 0.666687 19.5866 0.666687ZM14 19.1734C11.1466 19.1734 8.82663 16.8534 8.82663 14C8.82663 11.1467 11.1466 8.82669 14 8.82669C16.8533 8.82669 19.1733 11.1467 19.1733 14C19.1733 16.8534 16.8533 19.1734 14 19.1734ZM21.8933 7.17335C21.8266 7.33335 21.7333 7.48002 21.6133 7.61335C21.48 7.73335 21.3333 7.82669 21.1733 7.89335C21.0133 7.96002 20.84 8.00002 20.6666 8.00002C20.3066 8.00002 19.9733 7.86669 19.72 7.61335C19.6 7.48002 19.5066 7.33335 19.44 7.17335C19.3733 7.01335 19.3333 6.84002 19.3333 6.66669C19.3333 6.49335 19.3733 6.32002 19.44 6.16002C19.5066 5.98669 19.6 5.85335 19.72 5.72002C20.0266 5.41335 20.4933 5.26669 20.92 5.36002C21.0133 5.37335 21.0933 5.40002 21.1733 5.44002C21.2533 5.46669 21.3333 5.50669 21.4133 5.56002C21.48 5.60002 21.5466 5.66669 21.6133 5.72002C21.7333 5.85335 21.8266 5.98669 21.8933 6.16002C21.96 6.32002 22 6.49335 22 6.66669C22 6.84002 21.96 7.01335 21.8933 7.17335Z" fill="#6CB4EE"/>
</svg>
