<svg width="28" height="24" viewBox="0 0 28 24" fill="none" xmlns="http://www.w3.org/2000/svg">
<path d="M20.6666 0.666687H7.33329C3.33329 0.666687 0.666626 2.66669 0.666626 7.33335V16.6667C0.666626 21.3334 3.33329 23.3334 7.33329 23.3334H20.6666C24.6666 23.3334 27.3333 21.3334 27.3333 16.6667V7.33335C27.3333 2.66669 24.6666 0.666687 20.6666 0.666687ZM21.2933 8.78669L17.12 12.12C16.24 12.8267 15.12 13.1734 14 13.1734C12.88 13.1734 11.7466 12.8267 10.88 12.12L6.70663 8.78669C6.27996 8.44002 6.21329 7.80002 6.54663 7.37335C6.89329 6.94669 7.51996 6.86669 7.94663 7.21335L12.12 10.5467C13.1333 11.36 14.8533 11.36 15.8666 10.5467L20.04 7.21335C20.4666 6.86669 21.1066 6.93335 21.44 7.37335C21.7866 7.80002 21.72 8.44002 21.2933 8.78669Z" fill="#6CB4EE"/>
</svg>
